<?xml version="1.0" standalone="no"?>
<!DOCTYPE svg PUBLIC "-//W3C//DTD SVG 20010904//EN"
 "http://www.w3.org/TR/2001/REC-SVG-20010904/DTD/svg10.dtd">
<svg version="1.0" xmlns="http://www.w3.org/2000/svg"
 width="1067.000000pt" height="1067.000000pt" viewBox="0 0 1067.000000 1067.000000"
 preserveAspectRatio="xMidYMid meet">
<metadata>
Created by potrace 1.16, written by Peter Selinger 2001-2019
</metadata>
<g transform="translate(0.000000,1067.000000) scale(0.100000,-0.100000)"
fill="#000000" stroke="none">
<path d="M2170 10654 c-554 -75 -1047 -319 -1441 -713 -398 -398 -641 -893
-714 -1454 -13 -104 -15 -480 -15 -3152 0 -2672 2 -3048 15 -3152 73 -561 317
-1058 714 -1453 401 -400 892 -641 1454 -715 104 -13 480 -15 3152 -15 2672 0
3048 2 3152 15 562 74 1055 316 1454 714 398 399 640 892 714 1454 13 104 15
480 15 3152 0 2672 -2 3048 -15 3152 -73 561 -316 1056 -714 1454 -398 398
-893 641 -1454 714 -104 13 -478 15 -3165 14 -2576 -1 -3063 -3 -3152 -15z
m487 -1588 c186 -39 320 -113 458 -251 115 -115 176 -213 227 -365 31 -92 32
-100 32 -265 0 -160 -2 -175 -28 -255 -55 -164 -126 -279 -242 -391 -112 -106
-208 -163 -364 -215 -80 -26 -95 -28 -255 -28 -165 0 -173 1 -265 32 -152 51
-250 112 -365 227 -181 181 -265 381 -265 630 0 427 294 786 720 881 77 17
265 17 347 0z m4973 -2371 c811 -126 1241 -575 1389 -1451 56 -329 55 -284 58
-1969 l4 -1561 -23 -33 c-13 -19 -36 -44 -51 -55 -28 -21 -34 -21 -697 -21
-660 0 -669 0 -696 21 -40 29 -64 65 -74 110 -6 22 -10 597 -10 1345 0 848 -4
1344 -11 1415 -21 222 -74 411 -150 541 -56 95 -163 195 -261 241 -123 59
-214 77 -393 77 -289 -1 -479 -68 -636 -225 -136 -136 -216 -323 -265 -620
-16 -95 -18 -234 -23 -1450 l-6 -1345 -23 -37 c-13 -21 -40 -45 -66 -57 -41
-21 -55 -21 -682 -21 l-640 0 -44 23 c-33 16 -51 34 -67 67 l-23 44 0 2362 c0
1642 3 2371 11 2391 15 42 68 92 109 103 21 6 270 10 630 10 556 0 598 -2 635
-19 97 -44 104 -73 105 -403 0 -163 4 -268 10 -268 5 0 29 30 53 68 261 403
704 677 1187 736 86 10 549 -3 650 -19z m-4490 -105 c41 -11 94 -61 109 -103
8 -20 11 -749 11 -2391 l0 -2362 -22 -44 c-15 -30 -37 -53 -63 -67 l-40 -23
-650 0 -650 0 -40 23 c-22 13 -49 40 -62 62 l-23 40 0 2368 c0 1988 2 2373 14
2400 17 41 65 85 102 97 41 12 1270 12 1314 0z"/>
</g>
</svg>
